<svg xmlns="http://www.w3.org/2000/svg"  viewBox="0 0 48 48" width="24px" height="24px"><path d="M 24.048828 2 A 1.50015 1.50015 0 0 0 22.998047 2.3847656 C 22.998047 2.3847656 15.490168 9 6.5 9 A 1.50015 1.50015 0 0 0 5 10.5 L 5 22.759766 C 5 29.437814 8.0894135 40.426402 23.417969 46.882812 A 1.50015 1.50015 0 0 0 24.582031 46.882812 C 39.910586 40.426403 43 29.437814 43 22.759766 L 43 10.5 A 1.50015 1.50015 0 0 0 41.5 9 C 32.509832 9 25.001953 2.3847656 25.001953 2.3847656 A 1.50015 1.50015 0 0 0 24.048828 2 z M 24 12 C 27.31 12 30 14.69 30 18 L 30 20 C 31.65 20 33 21.35 33 23 L 33 31 C 33 32.65 31.65 34 30 34 L 18 34 C 16.35 34 15 32.65 15 31 L 15 23 C 15 21.35 16.35 20 18 20 L 18 18 C 18 14.69 20.69 12 24 12 z M 24 15 C 22.35 15 21 16.35 21 18 L 21 20 L 27 20 L 27 18 C 27 16.35 25.65 15 24 15 z M 24 24 A 3 3 0 0 0 24 30 A 3 3 0 0 0 24 24 z"/></svg>