<svg xmlns="http://www.w3.org/2000/svg"  viewBox="0 0 48 48" width="24px" height="24px"><path d="M43.926,19.033c-0.176-0.537-0.639-0.93-1.198-1.016l-12.233-1.882L25.342,5.829C25.087,5.321,24.568,5,24,5	s-1.087,0.321-1.342,0.829l-5.153,10.307L5.272,18.018c-0.559,0.086-1.021,0.479-1.198,1.016c-0.176,0.537-0.035,1.128,0.365,1.527	l8.462,8.463l-1.884,12.248c-0.086,0.56,0.149,1.119,0.609,1.448c0.46,0.328,1.066,0.37,1.567,0.11L24,37.191l10.806,5.639	C35.024,42.943,35.263,43,35.5,43c0.308,0,0.614-0.095,0.873-0.28c0.46-0.329,0.695-0.889,0.609-1.448l-1.884-12.248l8.462-8.463	C43.96,20.161,44.102,19.57,43.926,19.033z M28.5,26.579h-3.08v3.08c0,0.828-0.671,1.5-1.5,1.5s-1.5-0.672-1.5-1.5v-3.08h-3.079	c-0.829,0-1.5-0.672-1.5-1.5s0.671-1.5,1.5-1.5h3.079V20.5c0-0.828,0.671-1.5,1.5-1.5s1.5,0.672,1.5,1.5v3.079h3.08	c0.829,0,1.5,0.672,1.5,1.5S29.329,26.579,28.5,26.579z"/></svg>