<svg xmlns="http://www.w3.org/2000/svg"  viewBox="0 0 48 48" width="24px" height="24px"><path d="M 16.041016 4.9804688 A 2.0002 2.0002 0 0 0 14.642578 5.53125 L 9.4511719 10.324219 L 7.3007812 8.4824219 A 2.0002 2.0002 0 1 0 4.6992188 11.517578 L 8.1992188 14.517578 A 2.0002 2.0002 0 0 0 10.857422 14.46875 L 17.357422 8.46875 A 2.0002 2.0002 0 0 0 16.041016 4.9804688 z M 22 8 A 2.0002 2.0002 0 1 0 22 12 L 42 12 A 2.0002 2.0002 0 1 0 42 8 L 22 8 z M 22 22 A 2.0002 2.0002 0 1 0 22 26 L 42 26 A 2.0002 2.0002 0 1 0 42 22 L 22 22 z M 22 36 A 2.0002 2.0002 0 1 0 22 40 L 42 40 A 2.0002 2.0002 0 1 0 42 36 L 22 36 z"/></svg>