<svg xmlns="http://www.w3.org/2000/svg"  viewBox="0 0 48 48" width="24px" height="24px"><path d="M24 6A6 6 0 1024 18 6 6 0 1024 6zM11 8A5 5 0 1011 18 5 5 0 1011 8zM37 8A5 5 0 1037 18 5 5 0 1037 8zM24 42c-4.962 0-9-4.038-9-9v-9.5c0-1.93 1.57-3.5 3.5-3.5h11c1.93 0 3.5 1.57 3.5 3.5V33C33 37.962 28.962 42 24 42zM13 33v-9.5c0-1.328.474-2.548 1.261-3.5H7.5C5.57 20 4 21.57 4 23.5V30c0 4.41 3.59 8 8 8 .71 0 1.4-.09 2.06-.27 0 0 .011-.005.02-.008C13.395 36.289 13 34.691 13 33zM35 33v-9.5c0-1.328-.474-2.548-1.261-3.5H40.5c1.93 0 3.5 1.57 3.5 3.5V30c0 4.41-3.59 8-8 8-.71 0-1.4-.09-2.06-.27 0 0-.011-.005-.02-.008C34.605 36.289 35 34.691 35 33z"/></svg>