<svg xmlns="http://www.w3.org/2000/svg"  viewBox="0 0 48 48" width="24px" height="24px"><path d="M 10.5 5 C 6.916 5 4 7.916 4 11.5 L 4 33.451172 C 4 34.413172 4.532625 35.28275 5.390625 35.71875 C 5.756625 35.90575 6.152875 35.996094 6.546875 35.996094 C 7.072875 35.996094 7.5950625 35.832766 8.0390625 35.509766 L 16.986328 29 L 29.5 29 C 33.084 29 36 26.084 36 22.5 L 36 11.5 C 36 7.916 33.084 5 29.5 5 L 10.5 5 z M 13.5 12 L 26.5 12 C 27.328 12 28 12.671 28 13.5 C 28 14.329 27.328 15 26.5 15 L 13.5 15 C 12.672 15 12 14.329 12 13.5 C 12 12.671 12.672 12 13.5 12 z M 38 14.025391 L 38 22.5 C 38 27.187 34.187 31 29.5 31 L 17.638672 31 L 12.761719 34.546875 C 13.855719 36.599875 16.017 38 18.5 38 L 31.013672 38 L 39.960938 44.507812 C 40.404938 44.831812 40.927125 44.996094 41.453125 44.996094 C 41.847125 44.996094 42.243375 44.903797 42.609375 44.716797 C 43.466375 44.280797 44 43.411219 44 42.449219 L 44 20.5 C 44 17.085 41.351 14.282391 38 14.025391 z M 13.5 19 L 23.5 19 C 24.328 19 25 19.671 25 20.5 C 25 21.329 24.328 22 23.5 22 L 13.5 22 C 12.672 22 12 21.329 12 20.5 C 12 19.671 12.672 19 13.5 19 z"/></svg>