<svg xmlns="http://www.w3.org/2000/svg"  viewBox="0 0 48 48" width="24px" height="24px"><path d="M24,4C12.972,4,4,12.972,4,24s8.972,20,20,20s20-8.972,20-20S35.028,4,24,4z M24,36c-1.105,0-2-0.895-2-2	c0-1.105,0.895-2,2-2s2,0.895,2,2C26,35.105,25.105,36,24,36z M26.99,24.977c-0.992,0.773-1.49,1.161-1.49,2.523	c0,0.829-0.671,1.5-1.5,1.5s-1.5-0.671-1.5-1.5c0-2.828,1.529-4.019,2.646-4.889C26.222,21.772,27,21.166,27,19c0-1.654-1.346-3-3-3	s-3,1.346-3,3v0.5c0,0.829-0.671,1.5-1.5,1.5S18,20.329,18,19.5V19c0-3.309,2.691-6,6-6s6,2.691,6,6	C30,22.631,28.26,23.987,26.99,24.977z"/></svg>